<svg xmlns="http://www.w3.org/2000/svg" xmlns:xlink="http://www.w3.org/1999/xlink" contentStyleType="text/css" height="307px" preserveAspectRatio="none" style="width:663px;height:307px;background:#FFFFFF;" version="1.1" viewBox="0 0 663 307" width="663px" zoomAndPan="magnify"><defs/><g><ellipse cx="244.1343" cy="20" fill="#222222" rx="10" ry="10" style="stroke:#222222;stroke-width:1;"/><rect fill="#F1F1F1" height="33.9688" rx="12.5" ry="12.5" style="stroke:#181818;stroke-width:0.5;" width="153.5938" x="167.3374" y="50"/><text fill="#000000" font-family="sans-serif" font-size="12" lengthAdjust="spacing" textLength="133.5938" x="177.3374" y="71.1387">Wprowadz rok (liczba)</text><polygon fill="#F1F1F1" points="168.5818,103.9688,319.6868,103.9688,331.6868,115.9688,319.6868,127.9688,168.5818,127.9688,156.5818,115.9688,168.5818,103.9688" style="stroke:#181818;stroke-width:0.5;"/><text fill="#000000" font-family="sans-serif" font-size="11" lengthAdjust="spacing" textLength="151.105" x="168.5818" y="119.7769">Czy rok jest podzielny 400?</text><text fill="#000000" font-family="sans-serif" font-size="11" lengthAdjust="spacing" textLength="17.4238" x="139.158" y="113.3745">tak</text><text fill="#000000" font-family="sans-serif" font-size="11" lengthAdjust="spacing" textLength="16.7954" x="331.6868" y="113.3745">nie</text><rect fill="#F1F1F1" height="33.9688" rx="12.5" ry="12.5" style="stroke:#181818;stroke-width:0.5;" width="113.3398" x="11" y="137.9688"/><text fill="#000000" font-family="sans-serif" font-size="12" lengthAdjust="spacing" textLength="93.3398" x="21" y="159.1074">Rok przestepny</text><ellipse cx="67.6699" cy="217.9375" fill="none" rx="11" ry="11" style="stroke:#222222;stroke-width:1;"/><ellipse cx="67.6699" cy="217.9375" fill="#222222" rx="6" ry="6" style="stroke:#222222;stroke-width:1;"/><polygon fill="#F1F1F1" points="365.3862,137.9688,535.811,137.9688,547.811,149.9688,535.811,161.9688,365.3862,161.9688,353.3862,149.9688,365.3862,137.9688" style="stroke:#181818;stroke-width:0.5;"/><text fill="#000000" font-family="sans-serif" font-size="11" lengthAdjust="spacing" textLength="170.4248" x="365.3862" y="153.7769">Czy rok jest podzielny przez 4?</text><text fill="#000000" font-family="sans-serif" font-size="11" lengthAdjust="spacing" textLength="17.4238" x="335.9624" y="147.3745">tak</text><text fill="#000000" font-family="sans-serif" font-size="11" lengthAdjust="spacing" textLength="16.7954" x="547.811" y="147.3745">nie</text><polygon fill="#F1F1F1" points="224.0781,171.9688,408.5,171.9688,420.5,183.9688,408.5,195.9688,224.0781,195.9688,212.0781,183.9688,224.0781,171.9688" style="stroke:#181818;stroke-width:0.5;"/><text fill="#000000" font-family="sans-serif" font-size="11" lengthAdjust="spacing" textLength="184.4219" x="224.0781" y="187.7769">Czy rok jest podzielny przez 100?</text><text fill="#000000" font-family="sans-serif" font-size="11" lengthAdjust="spacing" textLength="17.4238" x="194.6543" y="181.3745">tak</text><text fill="#000000" font-family="sans-serif" font-size="11" lengthAdjust="spacing" textLength="16.7954" x="420.5" y="181.3745">nie</text><rect fill="#F1F1F1" height="33.9688" rx="12.5" ry="12.5" style="stroke:#181818;stroke-width:0.5;" width="135.4766" x="134.3398" y="205.9688"/><text fill="#000000" font-family="sans-serif" font-size="12" lengthAdjust="spacing" textLength="115.4766" x="144.3398" y="227.1074">Rok nie przestepny</text><ellipse cx="202.0781" cy="285.9375" fill="none" rx="11" ry="11" style="stroke:#222222;stroke-width:1;"/><ellipse cx="202.0781" cy="285.9375" fill="#222222" rx="6" ry="6" style="stroke:#222222;stroke-width:1;"/><rect fill="#F1F1F1" height="33.9688" rx="12.5" ry="12.5" style="stroke:#181818;stroke-width:0.5;" width="113.3398" x="373.8301" y="205.9688"/><text fill="#000000" font-family="sans-serif" font-size="12" lengthAdjust="spacing" textLength="93.3398" x="383.8301" y="227.1074">Rok przestepny</text><ellipse cx="430.5" cy="285.9375" fill="none" rx="11" ry="11" style="stroke:#222222;stroke-width:1;"/><ellipse cx="430.5" cy="285.9375" fill="#222222" rx="6" ry="6" style="stroke:#222222;stroke-width:1;"/><rect fill="#F1F1F1" height="33.9688" rx="12.5" ry="12.5" style="stroke:#181818;stroke-width:0.5;" width="135.4766" x="517.1699" y="171.9688"/><text fill="#000000" font-family="sans-serif" font-size="12" lengthAdjust="spacing" textLength="115.4766" x="527.1699" y="193.1074">Rok nie przestepny</text><ellipse cx="584.9082" cy="251.9375" fill="none" rx="11" ry="11" style="stroke:#222222;stroke-width:1;"/><ellipse cx="584.9082" cy="251.9375" fill="#222222" rx="6" ry="6" style="stroke:#222222;stroke-width:1;"/><line style="stroke:#181818;stroke-width:1;" x1="244.1343" x2="244.1343" y1="30" y2="50"/><polygon fill="#181818" points="240.1343,40,244.1343,50,248.1343,40,244.1343,44" style="stroke:#181818;stroke-width:1;"/><line style="stroke:#181818;stroke-width:1;" x1="67.6699" x2="67.6699" y1="171.9375" y2="206.9375"/><polygon fill="#181818" points="63.6699,196.9375,67.6699,206.9375,71.6699,196.9375,67.6699,200.9375" style="stroke:#181818;stroke-width:1;"/><line style="stroke:#181818;stroke-width:1;" x1="202.0781" x2="202.0781" y1="239.9375" y2="274.9375"/><polygon fill="#181818" points="198.0781,264.9375,202.0781,274.9375,206.0781,264.9375,202.0781,268.9375" style="stroke:#181818;stroke-width:1;"/><line style="stroke:#181818;stroke-width:1;" x1="430.5" x2="430.5" y1="239.9375" y2="274.9375"/><polygon fill="#181818" points="426.5,264.9375,430.5,274.9375,434.5,264.9375,430.5,268.9375" style="stroke:#181818;stroke-width:1;"/><line style="stroke:#181818;stroke-width:1;" x1="212.0781" x2="202.0781" y1="183.9688" y2="183.9688"/><line style="stroke:#181818;stroke-width:1;" x1="202.0781" x2="202.0781" y1="183.9688" y2="205.9688"/><polygon fill="#181818" points="198.0781,195.9688,202.0781,205.9688,206.0781,195.9688,202.0781,199.9688" style="stroke:#181818;stroke-width:1;"/><line style="stroke:#181818;stroke-width:1;" x1="420.5" x2="430.5" y1="183.9688" y2="183.9688"/><line style="stroke:#181818;stroke-width:1;" x1="430.5" x2="430.5" y1="183.9688" y2="205.9688"/><polygon fill="#181818" points="426.5,195.9688,430.5,205.9688,434.5,195.9688,430.5,199.9688" style="stroke:#181818;stroke-width:1;"/><line style="stroke:#181818;stroke-width:1;" x1="584.9082" x2="584.9082" y1="205.9375" y2="240.9375"/><polygon fill="#181818" points="580.9082,230.9375,584.9082,240.9375,588.9082,230.9375,584.9082,234.9375" style="stroke:#181818;stroke-width:1;"/><line style="stroke:#181818;stroke-width:1;" x1="353.3862" x2="316.2891" y1="149.9688" y2="149.9688"/><line style="stroke:#181818;stroke-width:1;" x1="316.2891" x2="316.2891" y1="149.9688" y2="171.9688"/><polygon fill="#181818" points="312.2891,161.9688,316.2891,171.9688,320.2891,161.9688,316.2891,165.9688" style="stroke:#181818;stroke-width:1;"/><line style="stroke:#181818;stroke-width:1;" x1="547.811" x2="584.9082" y1="149.9688" y2="149.9688"/><line style="stroke:#181818;stroke-width:1;" x1="584.9082" x2="584.9082" y1="149.9688" y2="171.9688"/><polygon fill="#181818" points="580.9082,161.9688,584.9082,171.9688,588.9082,161.9688,584.9082,165.9688" style="stroke:#181818;stroke-width:1;"/><line style="stroke:#181818;stroke-width:1;" x1="156.5818" x2="67.6699" y1="115.9688" y2="115.9688"/><line style="stroke:#181818;stroke-width:1;" x1="67.6699" x2="67.6699" y1="115.9688" y2="137.9688"/><polygon fill="#181818" points="63.6699,127.9688,67.6699,137.9688,71.6699,127.9688,67.6699,131.9688" style="stroke:#181818;stroke-width:1;"/><line style="stroke:#181818;stroke-width:1;" x1="331.6868" x2="450.5986" y1="115.9688" y2="115.9688"/><line style="stroke:#181818;stroke-width:1;" x1="450.5986" x2="450.5986" y1="115.9688" y2="137.9688"/><polygon fill="#181818" points="446.5986,127.9688,450.5986,137.9688,454.5986,127.9688,450.5986,131.9688" style="stroke:#181818;stroke-width:1;"/><line style="stroke:#181818;stroke-width:1;" x1="244.1343" x2="244.1343" y1="83.9688" y2="103.9688"/><polygon fill="#181818" points="240.1343,93.9688,244.1343,103.9688,248.1343,93.9688,244.1343,97.9688" style="stroke:#181818;stroke-width:1;"/><!--SRC=[ZOx13i8W38RlF4MFS9l9Jjl1Ws_WnJEEBk8846XYuEa5D2PkSR67fcd-h_qYoK1ikFZW7b9b26u1RlIKhrACJC_0JpcrxHqZWNSgQpGsGTzrHm5qGmkSv28Om70kCHzo2QAtQIohICupD161Muqrj7EoeXdwzTa_cCDMfbOJAdzNKhMQM1s-v3xG7c2Ldja6_Fdh3Rwmrfy0]--></g></svg>